<?xml version="1.0" encoding="UTF-8" standalone="no"?>
<svg
   xmlns:dc="http://purl.org/dc/elements/1.1/"
   xmlns:cc="http://creativecommons.org/ns#"
   xmlns:rdf="http://www.w3.org/1999/02/22-rdf-syntax-ns#"
   xmlns:svg="http://www.w3.org/2000/svg"
   xmlns="http://www.w3.org/2000/svg"
   xmlns:sodipodi="http://sodipodi.sourceforge.net/DTD/sodipodi-0.dtd"
   xmlns:inkscape="http://www.inkscape.org/namespaces/inkscape"
   version="1.1"
   viewBox="0 0 630 400"
   stroke-miterlimit="10"
   id="svg4740"
   inkscape:version="0.91 r13725"
   sodipodi:docname="activities-links.svg"
   width="630"
   height="400"
   style="fill:none;stroke:none;stroke-linecap:square;stroke-miterlimit:10"
   inkscape:export-filename="/home/yuvalbr/src/karbor/doc/images/protection-service/activities-links.png"
   inkscape:export-xdpi="90"
   inkscape:export-ydpi="90">
  <metadata
     id="metadata4837">
    <rdf:RDF>
      <cc:Work
         rdf:about="">
        <dc:format>image/svg+xml</dc:format>
        <dc:type
           rdf:resource="http://purl.org/dc/dcmitype/StillImage" />
        <dc:title></dc:title>
      </cc:Work>
    </rdf:RDF>
  </metadata>
  <defs
     id="defs4835" />
  <sodipodi:namedview
     pagecolor="#ffffff"
     bordercolor="#666666"
     borderopacity="1"
     objecttolerance="10"
     gridtolerance="10"
     guidetolerance="10"
     inkscape:pageopacity="0"
     inkscape:pageshadow="2"
     inkscape:window-width="1920"
     inkscape:window-height="1019"
     id="namedview4833"
     showgrid="false"
     inkscape:zoom="1.2208333"
     inkscape:cx="359.41036"
     inkscape:cy="309.21228"
     inkscape:window-x="0"
     inkscape:window-y="0"
     inkscape:window-maximized="1"
     inkscape:current-layer="svg4740" />
  <clipPath
     id="g112777f60d_0_0.0">
    <path
       d="M 0,0 960,0 960,540 0,540 0,0 Z"
       id="path4743"
       inkscape:connector-curvature="0"
       style="clip-rule:nonzero" />
  </clipPath>
  <path
     style="fill:#000000;fill-opacity:0;fill-rule:nonzero"
     inkscape:connector-curvature="0"
     id="path4749"
     d="M 201.82612,82.873995 159.36627,42.829094" />
  <path
     style="fill-rule:evenodd;stroke:#d32f2f;stroke-width:3.43319273;stroke-linecap:butt;stroke-linejoin:round"
     inkscape:connector-curvature="0"
     id="path4751"
     d="M 201.82613,82.873995 174.35199,56.962489" />
  <path
     style="fill:#d32f2f;fill-rule:evenodd;stroke:#d32f2f;stroke-width:3.43319273;stroke-linecap:butt"
     inkscape:connector-curvature="0"
     id="path4753"
     d="m 178.24277,52.837092 -15.2252,-6.564386 7.44368,14.815198 z" />
  <path
     style="fill:#000000;fill-opacity:0;fill-rule:nonzero"
     inkscape:connector-curvature="0"
     id="path4755"
     d="m 274.47283,139.22734 0,-30.67348" />
  <path
     style="fill-rule:evenodd;stroke:#fbc02d;stroke-width:3.43319273;stroke-linecap:butt;stroke-linejoin:round"
     inkscape:connector-curvature="0"
     id="path4757"
     d="m 274.47283,139.22734 0,-10.07431" />
  <path
     style="fill:#fbc02d;fill-rule:evenodd;stroke:#fbc02d;stroke-width:3.43319273;stroke-linecap:butt"
     inkscape:connector-curvature="0"
     id="path4759"
     d="m 280.14355,129.15303 -5.67072,-15.58017 -5.67072,15.58017 z" />
  <path
     style="fill:#000000;fill-opacity:0;fill-rule:nonzero"
     inkscape:connector-curvature="0"
     id="path4761"
     d="M 435.10581,275.87706 392.64595,235.83214" />
  <path
     style="fill-rule:evenodd;stroke:#d32f2f;stroke-width:3.43319273;stroke-linecap:butt;stroke-linejoin:round"
     inkscape:connector-curvature="0"
     id="path4763"
     d="M 435.10577,275.87702 407.63163,249.96554" />
  <path
     style="fill:#d32f2f;fill-rule:evenodd;stroke:#d32f2f;stroke-width:3.43319273;stroke-linecap:butt"
     inkscape:connector-curvature="0"
     id="path4765"
     d="m 411.52245,245.84013 -15.22523,-6.56439 7.44369,14.81519 z" />
  <path
     style="fill:#000000;fill-opacity:0;fill-rule:nonzero"
     inkscape:connector-curvature="0"
     id="path4767"
     d="m 507.75252,332.23036 0,-30.67343" />
  <path
     style="fill-rule:evenodd;stroke:#fbc02d;stroke-width:3.43319273;stroke-linecap:butt;stroke-linejoin:round"
     inkscape:connector-curvature="0"
     id="path4769"
     d="m 507.75248,332.23036 0,-10.07428" />
  <path
     style="fill:#fbc02d;fill-rule:evenodd;stroke:#fbc02d;stroke-width:3.43319273;stroke-linecap:butt"
     inkscape:connector-curvature="0"
     id="path4771"
     d="m 513.4232,322.15607 -5.67072,-15.58016 -5.67072,15.58016 z" />
  <path
     style="fill:#000000;fill-opacity:0;fill-rule:nonzero"
     inkscape:connector-curvature="0"
     id="path4773"
     d="m 247.33916,235.84318 -160.648165,0 0,-167.316337" />
  <path
     style="fill-rule:evenodd;stroke:#536dfe;stroke-width:3.43319273;stroke-linecap:butt;stroke-linejoin:round"
     inkscape:connector-curvature="0"
     id="path4775"
     d="m 247.33916,235.84318 -160.648165,0 0,-146.717158" />
  <path
     style="fill:#536dfe;fill-rule:evenodd;stroke:#536dfe;stroke-width:3.43319273;stroke-linecap:butt"
     inkscape:connector-curvature="0"
     id="path4777"
     d="M 92.361725,89.12601 86.691006,73.54585 81.020287,89.12601 Z" />
  <path
     style="fill:#000000;fill-opacity:0;fill-rule:nonzero"
     inkscape:connector-curvature="0"
     id="path4779"
     d="m 347.11955,164.90868 261.89062,0 0,193.01572 -28.61372,0" />
  <path
     style="fill-rule:evenodd;stroke:#4caf50;stroke-width:3.43319273;stroke-linecap:butt;stroke-linejoin:round"
     inkscape:connector-curvature="0"
     id="path4781"
     d="m 347.11955,164.90869 261.89062,0 0,193.0157 -8.01456,0" />
  <path
     style="fill:#4caf50;fill-rule:evenodd;stroke:#4caf50;stroke-width:3.43319273;stroke-linecap:butt"
     inkscape:connector-curvature="0"
     id="path4783"
     d="m 600.99561,352.25368 -15.5802,5.67072 15.5802,5.67069 z" />
  <path
     style="fill:#eeeeee;fill-rule:nonzero"
     inkscape:connector-curvature="0"
     id="path4785"
     d="m 201.82612,139.22734 136.7328,0 8.56063,8.5606 0,42.80211 -145.29343,0 z" />
  <path
     style="fill-rule:nonzero;stroke:#595959;stroke-width:1.14439762;stroke-linecap:butt;stroke-linejoin:round"
     inkscape:connector-curvature="0"
     id="path4787"
     d="m 201.82612,139.22734 136.7328,0 8.56063,8.5606 0,42.80211 -145.29343,0 z" />
  <path
     style="fill:#000000;fill-rule:nonzero"
     inkscape:connector-curvature="0"
     id="path4789"
     d="m 251.96374,160.77754 0,-9.83466 3.18286,0 q 1.80599,0 2.36032,0.14305 0.84041,0.23245 1.41261,0.98346 0.5722,0.73313 0.5722,1.89541 0,0.91194 -0.33974,1.53778 -0.32186,0.60796 -0.82254,0.96559 -0.50067,0.33974 -1.03711,0.46491 -0.69737,0.14305 -2.05634,0.14305 l -1.28745,0 0,3.70141 -1.98481,0 z m 1.98481,-8.17172 0,2.78947 1.09076,0 q 1.16227,0 1.55566,-0.14305 0.41127,-0.16092 0.62585,-0.48278 0.23245,-0.33975 0.23245,-0.7689 0,-0.53644 -0.32186,-0.87618 -0.32187,-0.35762 -0.80465,-0.44703 -0.33975,-0.0715 -1.41262,-0.0715 l -0.96559,0 z m 8.56958,3.21862 -1.71659,-0.30397 q 0.28609,-1.03711 0.98346,-1.51991 0.71524,-0.50068 2.10998,-0.50068 1.25168,0 1.85965,0.30399 0.62584,0.2861 0.87618,0.75101 0.25034,0.44703 0.25034,1.68084 l -0.0179,2.19938 q 0,0.94771 0.0894,1.39473 0.0894,0.42915 0.33974,0.94771 l -1.85965,0 q -0.0715,-0.1967 -0.17881,-0.55432 -0.0537,-0.17881 -0.0715,-0.23245 -0.48279,0.48279 -1.03711,0.71525 -0.53644,0.23245 -1.16228,0.23245 -1.10863,0 -1.75236,-0.59008 -0.62584,-0.60796 -0.62584,-1.5199 0,-0.60797 0.2861,-1.07288 0.30398,-0.46491 0.82253,-0.71525 0.51856,-0.26821 1.50202,-0.44702 1.30534,-0.25034 1.82389,-0.46491 l 0,-0.17881 q 0,-0.55433 -0.26822,-0.78678 -0.26822,-0.23246 -1.01923,-0.23246 -0.50067,0 -0.78677,0.1967 -0.26822,0.19669 -0.44703,0.69736 z m 2.52125,1.53779 q -0.35763,0.10723 -1.1444,0.2861 -0.78677,0.16093 -1.03711,0.32186 -0.35763,0.26822 -0.35763,0.66161 0,0.39338 0.2861,0.69736 0.30399,0.2861 0.75102,0.2861 0.51856,0 0.98347,-0.33974 0.33973,-0.25034 0.44702,-0.62585 0.0715,-0.23245 0.0715,-0.91193 l 0,-0.37551 z m 5.50964,3.41531 -1.87752,0 0,-7.11672 1.75236,0 0,1.00135 q 0.44702,-0.71525 0.80465,-0.92982 0.35762,-0.23247 0.80466,-0.23247 0.64372,0 1.25168,0.35763 l -0.59008,1.62719 q -0.48279,-0.30398 -0.87618,-0.30398 -0.41127,0 -0.67948,0.23246 -0.26823,0.21457 -0.42915,0.78677 -0.16094,0.55432 -0.16094,2.3782 l 0,2.19939 z m 7.66882,-2.27092 1.87752,0.32187 q -0.35763,1.03711 -1.1444,1.57354 -0.78677,0.53644 -1.94905,0.53644 -1.85964,0 -2.7537,-1.21592 -0.71525,-0.96559 -0.71525,-2.44972 0,-1.77025 0.92982,-2.7716 0.92982,-1.00135 2.34243,-1.00135 1.59144,0 2.50337,1.055 0.92983,1.03711 0.87619,3.20073 l -4.72064,0 q 0.0357,0.84043 0.46491,1.30534 0.42915,0.46491 1.09075,0.46491 0.42915,0 0.73313,-0.23246 0.30398,-0.25034 0.46492,-0.78678 z m 0.10723,-1.8954 q -0.0179,-0.82254 -0.42915,-1.25169 -0.39339,-0.42915 -0.98348,-0.42915 -0.60796,0 -1.01922,0.44704 -0.39339,0.46491 -0.39339,1.2338 l 2.82524,0 z m 9.87266,4.16632 -1.87754,0 0,-3.62989 q 0,-1.16227 -0.12516,-1.50202 -0.10723,-0.33974 -0.39339,-0.51855 -0.26822,-0.1967 -0.64372,-0.1967 -0.50067,0 -0.89406,0.26823 -0.37551,0.26821 -0.51856,0.71524 -0.14305,0.44703 -0.14305,1.64508 l 0,3.21861 -1.89541,0 0,-7.11672 1.75236,0 0,1.03711 q 0.92982,-1.19805 2.36032,-1.19805 0.60796,0 1.12652,0.23247 0.51855,0.21457 0.78678,0.57219 0.26821,0.33974 0.35762,0.78678 0.10723,0.42915 0.10723,1.25168 l 0,4.43454 z m 5.18778,-7.11672 0,1.50202 -1.28745,0 0,2.861 q 0,0.87617 0.0357,1.01922 0.0357,0.14305 0.16093,0.25034 0.14305,0.0894 0.32187,0.0894 0.26821,0 0.75101,-0.19669 l 0.16092,1.46625 q -0.64372,0.2861 -1.48413,0.2861 -0.50068,0 -0.91195,-0.16092 -0.41126,-0.17881 -0.60796,-0.44704 -0.17881,-0.2861 -0.26821,-0.73312 -0.0537,-0.33975 -0.0537,-1.3411 l 0,-3.09344 -0.85829,0 0,-1.50202 0.85829,0 0,-1.41262 1.89541,-1.10864 0,2.52126 1.28745,0 z" />
  <path
     style="fill:#000000;fill-rule:nonzero"
     inkscape:connector-curvature="0"
     id="path4791"
     d="m 240.95674,180.2323 0,-9.83466 3.7193,0 q 0.96558,0 1.48414,0.0894 0.73313,0.12518 1.21592,0.46491 0.50068,0.33975 0.78678,0.94771 0.30397,0.60797 0.30397,1.34109 0,1.25168 -0.80465,2.12787 -0.78677,0.8583 -2.87888,0.8583 l -2.52124,0 0,4.00539 -1.30534,0 z m 1.30534,-5.14979 2.53913,0 q 1.26956,0 1.78812,-0.46491 0.53644,-0.4828 0.53644,-1.34109 0,-0.60797 -0.32186,-1.03712 -0.30399,-0.44702 -0.80467,-0.59007 -0.33973,-0.0894 -1.21592,-0.0894 l -2.52124,0 0,3.52261 z m 7.69338,5.14979 0,-7.11672 1.09076,0 0,1.07287 q 0.41126,-0.75101 0.75101,-0.98347 0.35763,-0.25034 0.78678,-0.25034 0.60796,0 1.23379,0.37551 l -0.41126,1.12652 q -0.44703,-0.26822 -0.87618,-0.26822 -0.41127,0 -0.73313,0.25034 -0.30398,0.23245 -0.42915,0.6616 -0.21457,0.64372 -0.21457,1.39473 l 0,3.73718 -1.19805,0 z m 9.45469,-2.28879 1.25169,0.14305 q -0.2861,1.09074 -1.09075,1.69871 -0.80466,0.60796 -2.03846,0.60796 -1.55567,0 -2.48549,-0.96559 -0.91194,-0.96558 -0.91194,-2.70006 0,-1.78812 0.92983,-2.77159 0.92982,-1.00135 2.39608,-1.00135 1.43049,0 2.32456,0.96559 0.91193,0.96558 0.91193,2.73583 0,0.10723 0,0.32186 l -5.31071,0 q 0.0715,1.18016 0.6616,1.806 0.59008,0.60796 1.48414,0.60796 0.6616,0 1.12651,-0.33974 0.4828,-0.35762 0.75101,-1.10863 z m -3.95174,-1.94906 3.96963,0 q -0.0715,-0.91194 -0.44704,-1.35897 -0.59007,-0.69736 -1.50202,-0.69736 -0.84041,0 -1.41261,0.55431 -0.55432,0.55432 -0.60796,1.50202 z m 5.79575,4.23785 3.77293,-9.83466 1.39473,0 4.02328,9.83466 -1.46626,0 -1.16228,-2.98617 -4.0948,0 -1.09076,2.98617 -1.37684,0 z m 2.8431,-4.04115 3.32591,0 -1.01922,-2.71795 q -0.4828,-1.23381 -0.69738,-2.03845 -0.19669,0.94769 -0.53643,1.87752 l -1.07288,2.87888 z m 11.89548,1.4305 1.18016,0.16092 q -0.19669,1.21592 -1.00135,1.9133 -0.80465,0.69736 -1.96693,0.69736 -1.46626,0 -2.36032,-0.9477 -0.87618,-0.96559 -0.87618,-2.75371 0,-1.1444 0.3755,-2.00269 0.39339,-0.87619 1.16229,-1.30534 0.78677,-0.42915 1.71659,-0.42915 1.1444,0 1.87753,0.59009 0.75101,0.5722 0.96558,1.66295 l -1.18016,0.17881 q -0.16092,-0.71525 -0.59007,-1.07287 -0.42915,-0.3755 -1.03711,-0.3755 -0.91195,0 -1.48415,0.66159 -0.5722,0.64373 -0.5722,2.05635 0,1.44837 0.55432,2.0921 0.55432,0.64372 1.4305,0.64372 0.71525,0 1.18016,-0.42915 0.48279,-0.42915 0.62584,-1.34108 z m 4.84581,1.53778 0.17881,1.05499 q -0.51856,0.10723 -0.91194,0.10723 -0.6616,0 -1.01923,-0.19669 -0.35762,-0.21458 -0.51856,-0.55433 -0.14305,-0.33973 -0.14305,-1.43049 l 0,-4.09479 -0.87617,0 0,-0.92983 0.87617,0 0,-1.77024 1.19805,-0.71525 0,2.48549 1.21592,0 0,0.92983 -1.21592,0 0,4.16631 q 0,0.51856 0.0537,0.66161 0.0715,0.14305 0.21458,0.23245 0.14305,0.0894 0.41127,0.0894 0.21457,0 0.53644,-0.0357 z m 1.18687,-7.36706 0,-1.39473 1.21592,0 0,1.39473 -1.21592,0 z m 0,8.43993 0,-7.11672 1.21592,0 0,7.11672 -1.21592,0 z m 5.01791,0 -2.70006,-7.11672 1.26956,0 1.53778,4.25573 q 0.23247,0.69736 0.44704,1.4305 0.16093,-0.55433 0.44702,-1.3411 l 1.59144,-4.34513 1.2338,0 -2.70006,7.11672 -1.12652,0 z m 4.89945,-8.43993 0,-1.39473 1.21592,0 0,1.39473 -1.21592,0 z m 0,8.43993 0,-7.11672 1.21592,0 0,7.11672 -1.21592,0 z m 5.67952,-1.07287 0.17881,1.05499 q -0.51855,0.10723 -0.91194,0.10723 -0.66161,0 -1.01923,-0.19669 -0.35762,-0.21458 -0.51855,-0.55433 -0.14305,-0.33973 -0.14305,-1.43049 l 0,-4.09479 -0.87618,0 0,-0.92983 0.87618,0 0,-1.77024 1.19804,-0.71525 0,2.48549 1.21592,0 0,0.92983 -1.21592,0 0,4.16631 q 0,0.51856 0.0537,0.66161 0.0715,0.14305 0.21457,0.23245 0.14305,0.0894 0.41126,0.0894 0.21458,0 0.53644,-0.0357 z m 1.13323,3.80869 -0.14305,-1.12651 q 0.39338,0.10723 0.69736,0.10723 0.39339,0 0.62585,-0.14305 0.25033,-0.12517 0.41126,-0.35762 0.10723,-0.1967 0.37551,-0.91195 0.0179,-0.0894 0.10723,-0.2861 l -2.71794,-7.1346 1.30532,0 1.48414,4.11268 q 0.2861,0.78677 0.51855,1.66295 0.21458,-0.84041 0.50068,-1.62719 l 1.51991,-4.14844 1.19803,0 -2.70005,7.24189 q -0.44704,1.16228 -0.67949,1.60931 -0.32186,0.60796 -0.75101,0.87618 -0.41128,0.2861 -0.98347,0.2861 -0.33974,0 -0.76889,-0.16094 z" />
  <path
     style="fill:#eeeeee;fill-rule:nonzero"
     inkscape:connector-curvature="0"
     id="path4793"
     d="m 201.82612,57.192635 136.7328,0 8.56063,8.560623 0,42.802102 -145.29343,0 z" />
  <path
     style="fill-rule:nonzero;stroke:#595959;stroke-width:1.14439762;stroke-linecap:butt;stroke-linejoin:round"
     inkscape:connector-curvature="0"
     id="path4795"
     d="m 201.82612,57.192635 136.7328,0 8.56063,8.560623 0,42.802102 -145.29343,0 z" />
  <path
     style="fill:#000000;fill-rule:nonzero"
     inkscape:connector-curvature="0"
     id="path4797"
     d="m 251.96374,78.742857 0,-9.834667 3.18286,0 q 1.80599,0 2.36032,0.14305 0.84041,0.23245 1.41261,0.983472 0.5722,0.733124 0.5722,1.895409 0,0.911936 -0.33974,1.537784 -0.32186,0.607961 -0.82254,0.965586 -0.50067,0.339737 -1.03711,0.464911 -0.69737,0.14305 -2.05634,0.14305 l -1.28745,0 0,3.701405 -1.98481,0 z m 1.98481,-8.171708 0,2.789469 1.09076,0 q 1.16227,0 1.55566,-0.14305 0.41127,-0.160937 0.62585,-0.482798 0.23245,-0.339738 0.23245,-0.768887 0,-0.536436 -0.32186,-0.876185 -0.32187,-0.357624 -0.80465,-0.447024 -0.33975,-0.07152 -1.41262,-0.07152 l -0.96559,0 z m 8.56958,3.218618 -1.71659,-0.303986 q 0.28609,-1.037111 0.98346,-1.519898 0.71524,-0.500674 2.10998,-0.500674 1.25168,0 1.85965,0.303975 0.62584,0.2861 0.87618,0.751011 0.25034,0.447036 0.25034,1.680834 l -0.0179,2.199395 q 0,0.947698 0.0894,1.394734 0.0894,0.429149 0.33974,0.947699 l -1.85965,0 q -0.0715,-0.196688 -0.17881,-0.554312 -0.0537,-0.178812 -0.0715,-0.232461 -0.48279,0.482798 -1.03711,0.715248 -0.53644,0.232462 -1.16228,0.232462 -1.10863,0 -1.75236,-0.590086 -0.62584,-0.607961 -0.62584,-1.519897 0,-0.607962 0.2861,-1.072873 0.30398,-0.464912 0.82253,-0.715249 0.51856,-0.268224 1.50202,-0.447036 1.30534,-0.250337 1.82389,-0.464911 l 0,-0.178812 q 0,-0.554312 -0.26822,-0.786774 -0.26822,-0.23245 -1.01923,-0.23245 -0.50067,0 -0.78677,0.196688 -0.26822,0.196699 -0.44703,0.697373 z m 2.52125,1.537784 q -0.35763,0.10723 -1.1444,0.2861 -0.78677,0.160925 -1.03711,0.321861 -0.35763,0.268213 -0.35763,0.661599 0,0.393387 0.2861,0.697373 0.30399,0.2861 0.75102,0.2861 0.51856,0 0.98347,-0.339749 0.33973,-0.250337 0.44702,-0.625837 0.0715,-0.232461 0.0715,-0.911947 l 0,-0.3755 z m 5.50964,3.415306 -1.87752,0 0,-7.116722 1.75236,0 0,1.001347 q 0.44702,-0.715248 0.80465,-0.929823 0.35762,-0.23245 0.80466,-0.23245 0.64372,0 1.25168,0.357625 l -0.59008,1.627184 q -0.48279,-0.303975 -0.87618,-0.303975 -0.41127,0 -0.67948,0.23245 -0.26823,0.214575 -0.42915,0.786774 -0.16094,0.554323 -0.16094,2.378207 l 0,2.199383 z m 7.66882,-2.270908 1.87752,0.321862 q -0.35763,1.03711 -1.1444,1.573546 -0.78677,0.536437 -1.94905,0.536437 -1.85964,0 -2.7537,-1.215923 -0.71525,-0.965585 -0.71525,-2.449732 0,-1.770234 0.92982,-2.771582 0.92982,-1.001348 2.34243,-1.001348 1.59144,0 2.50337,1.054986 0.92983,1.03711 0.87619,3.200743 l -4.72064,0 q 0.0357,0.840411 0.46491,1.305323 0.42915,0.464911 1.09075,0.464911 0.42915,0 0.73313,-0.23245 0.30398,-0.250337 0.46492,-0.786773 z m 0.10723,-1.895409 q -0.0179,-0.822536 -0.42915,-1.251685 -0.39339,-0.429149 -0.98348,-0.429149 -0.60796,0 -1.01922,0.447025 -0.39339,0.464911 -0.39339,1.233809 l 2.82524,0 z m 9.87266,4.166317 -1.87754,0 0,-3.62988 q 0,-1.162285 -0.12516,-1.502022 -0.10723,-0.339749 -0.39339,-0.518561 -0.26822,-0.196688 -0.64372,-0.196688 -0.50067,0 -0.89406,0.268213 -0.37551,0.268224 -0.51856,0.715248 -0.14305,0.447036 -0.14305,1.645072 l 0,3.218618 -1.89541,0 0,-7.116722 1.75236,0 0,1.03711 q 0.92982,-1.198036 2.36032,-1.198036 0.60796,0 1.12652,0.23245 0.51855,0.214575 0.78678,0.572199 0.26821,0.339749 0.35762,0.786773 0.10723,0.42915 0.10723,1.251685 l 0,4.434541 z m 5.18778,-7.116722 0,1.502021 -1.28745,0 0,2.860994 q 0,0.876185 0.0357,1.019235 0.0357,0.14305 0.16093,0.250337 0.14305,0.08938 0.32187,0.08938 0.26821,0 0.75101,-0.196687 l 0.16092,1.466259 q -0.64372,0.2861 -1.48413,0.2861 -0.50068,0 -0.91195,-0.160937 -0.41126,-0.178812 -0.60796,-0.447025 -0.17881,-0.286099 -0.26821,-0.733135 -0.0537,-0.339737 -0.0537,-1.341085 l 0,-3.093456 -0.85829,0 0,-1.502021 0.85829,0 0,-1.41261 1.89541,-1.108647 0,2.521257 1.28745,0 z" />
  <path
     style="fill:#000000;fill-rule:nonzero"
     inkscape:connector-curvature="0"
     id="path4799"
     d="m 228.74275,98.197616 0,-9.834667 3.71929,0 q 0.96559,0 1.48413,0.08938 0.73314,0.125163 1.21593,0.464912 0.50067,0.339737 0.78677,0.947698 0.30399,0.607962 0.30399,1.341097 0,1.251685 -0.80466,2.127859 -0.78678,0.858298 -2.87887,0.858298 l -2.52126,0 0,4.005391 -1.30532,0 z m 1.30532,-5.149789 2.53913,0 q 1.26957,0 1.78812,-0.464912 0.53644,-0.482787 0.53644,-1.341085 0,-0.607961 -0.32186,-1.03711 -0.30398,-0.447036 -0.80465,-0.590086 -0.33975,-0.08938 -1.21592,-0.08938 l -2.52126,0 0,3.522593 z m 12.3604,4.273615 q -0.67949,0.572199 -1.30534,0.804649 -0.60796,0.232461 -1.32321,0.232461 -1.18016,0 -1.80599,-0.572199 -0.62585,-0.572198 -0.62585,-1.466259 0,-0.518561 0.23246,-0.94771 0.23245,-0.447024 0.62584,-0.697361 0.39338,-0.268224 0.87618,-0.393387 0.33974,-0.10723 1.07288,-0.196699 1.44837,-0.160925 2.14574,-0.411262 0,-0.250337 0,-0.303987 0,-0.751011 -0.33975,-1.054985 -0.46491,-0.393387 -1.37685,-0.393387 -0.84042,0 -1.25168,0.303975 -0.41127,0.286099 -0.60796,1.03711 l -1.18016,-0.160925 q 0.16092,-0.751011 0.53644,-1.215922 0.37549,-0.464912 1.07287,-0.715249 0.69736,-0.250337 1.60931,-0.250337 0.91193,0 1.48413,0.214575 0.5722,0.214574 0.84042,0.536436 0.26822,0.321862 0.3755,0.822536 0.0537,0.303975 0.0537,1.108635 l 0,1.609309 q 0,1.680834 0.0715,2.127858 0.0894,0.447036 0.32186,0.858299 l -1.26957,0 q -0.17881,-0.3755 -0.23245,-0.876174 z m -0.10723,-2.700069 q -0.66161,0.268224 -1.96693,0.464912 -0.75102,0.10723 -1.055,0.250337 -0.30398,0.125174 -0.48279,0.375511 -0.16094,0.250337 -0.16094,0.572199 0,0.482787 0.35763,0.804648 0.37551,0.321862 1.07287,0.321862 0.69737,0 1.23381,-0.303975 0.55431,-0.303986 0.80465,-0.840422 0.1967,-0.411262 0.1967,-1.198036 l 0,-0.447036 z m 3.0778,3.576243 0,-7.116723 1.09075,0 0,1.072873 q 0.41127,-0.751011 0.75101,-0.983461 0.35762,-0.250337 0.78677,-0.250337 0.60796,0 1.23381,0.3755 l -0.41127,1.126522 q -0.44703,-0.268224 -0.87618,-0.268224 -0.41127,0 -0.73313,0.250337 -0.30398,0.232461 -0.42915,0.66161 -0.21458,0.643724 -0.21458,1.394735 l 0,3.737168 -1.19803,0 z m 9.24012,-0.876174 q -0.67949,0.572199 -1.30534,0.804649 -0.60796,0.232461 -1.32321,0.232461 -1.18016,0 -1.80599,-0.572199 -0.62585,-0.572198 -0.62585,-1.466259 0,-0.518561 0.23246,-0.94771 0.23245,-0.447024 0.62584,-0.697361 0.39338,-0.268224 0.87618,-0.393387 0.33974,-0.10723 1.07287,-0.196699 1.44838,-0.160925 2.14575,-0.411262 0,-0.250337 0,-0.303987 0,-0.751011 -0.33975,-1.054985 -0.46491,-0.393387 -1.37685,-0.393387 -0.84042,0 -1.25168,0.303975 -0.41128,0.286099 -0.60796,1.03711 l -1.18016,-0.160925 q 0.16092,-0.751011 0.53643,-1.215922 0.3755,-0.464912 1.07288,-0.715249 0.69736,-0.250337 1.6093,-0.250337 0.91194,0 1.48414,0.214575 0.5722,0.214574 0.84042,0.536436 0.26821,0.321862 0.3755,0.822536 0.0537,0.303975 0.0537,1.108635 l 0,1.609309 q 0,1.680834 0.0715,2.127858 0.0894,0.447036 0.32186,0.858299 l -1.26957,0 q -0.17881,-0.3755 -0.23245,-0.876174 z m -0.10723,-2.700069 q -0.66161,0.268224 -1.96694,0.464912 -0.75101,0.10723 -1.05499,0.250337 -0.30398,0.125174 -0.48279,0.375511 -0.16094,0.250337 -0.16094,0.572199 0,0.482787 0.35763,0.804648 0.37551,0.321862 1.07287,0.321862 0.69737,0 1.23381,-0.303975 0.55431,-0.303986 0.80465,-0.840422 0.1967,-0.411262 0.1967,-1.198036 l 0,-0.447036 z m 3.05992,3.576243 0,-9.834667 1.21592,0 0,9.834667 -1.21592,0 z m 3.05098,0 0,-9.834667 1.21592,0 0,9.834667 -1.21592,0 z m 7.95044,-2.288796 1.25168,0.14305 q -0.2861,1.09076 -1.09076,1.698721 -0.80465,0.607961 -2.03846,0.607961 -1.55566,0 -2.48548,-0.965585 -0.91195,-0.965586 -0.91195,-2.700069 0,-1.788121 0.92982,-2.771582 0.92983,-1.001348 2.39609,-1.001348 1.43049,0 2.32455,0.965586 0.91195,0.965585 0.91195,2.735819 0,0.10723 0,0.321862 l -5.31072,0 q 0.0715,1.18016 0.66161,1.806008 0.59007,0.607961 1.48413,0.607961 0.66161,0 1.12652,-0.339748 0.48279,-0.357625 0.75102,-1.108636 z m -3.95176,-1.949046 3.96963,0 q -0.0715,-0.911947 -0.44702,-1.358972 -0.59009,-0.697373 -1.50203,-0.697373 -0.84042,0 -1.41262,0.554323 -0.55431,0.554312 -0.60796,1.502022 z m 6.68982,4.237842 0,-9.834667 1.21592,0 0,9.834667 -1.21592,0 z m 2.15691,0 3.77294,-9.834667 1.39474,0 4.02327,9.834667 -1.46626,0 -1.16228,-2.986157 -4.0948,0 -1.09075,2.986157 -1.37686,0 z m 2.84312,-4.041154 3.32591,0 -1.01924,-2.717945 q -0.48279,-1.233797 -0.69736,-2.038458 -0.1967,0.94771 -0.53644,1.877533 l -1.07287,2.87887 z m 11.89548,1.430497 1.18016,0.160936 q -0.1967,1.215923 -1.00135,1.913284 -0.80466,0.697373 -1.96694,0.697373 -1.46625,0 -2.36032,-0.94771 -0.87618,-0.965585 -0.87618,-2.753706 0,-1.144398 0.37551,-2.002696 0.39339,-0.876174 1.16227,-1.305323 0.78678,-0.429149 1.7166,-0.429149 1.1444,0 1.87753,0.590074 0.75101,0.572199 0.96559,1.662959 l -1.18016,0.178812 q -0.16094,-0.715249 -0.59009,-1.072873 -0.42915,-0.375511 -1.03711,-0.375511 -0.91193,0 -1.48413,0.661611 -0.5722,0.643723 -0.5722,2.056333 0,1.448384 0.55431,2.092108 0.55432,0.643723 1.4305,0.643723 0.71525,0 1.18016,-0.429149 0.4828,-0.429149 0.62585,-1.341096 z m 4.8458,1.537784 0.17881,1.054997 q -0.51855,0.10723 -0.91194,0.10723 -0.66161,0 -1.01923,-0.196699 -0.35762,-0.214574 -0.51855,-0.554312 -0.14305,-0.339748 -0.14305,-1.430497 l 0,-4.094803 -0.87618,0 0,-0.929823 0.87618,0 0,-1.770234 1.19804,-0.715249 0,2.485483 1.21592,0 0,0.929823 -1.21592,0 0,4.166328 q 0,0.51855 0.0537,0.661599 0.0715,0.14305 0.21457,0.232462 0.14305,0.08938 0.41127,0.08938 0.21457,0 0.53643,-0.03571 z m 1.18686,-7.367059 0,-1.394735 1.21593,0 0,1.394735 -1.21593,0 z m 0,8.439932 0,-7.116723 1.21593,0 0,7.116723 -1.21593,0 z m 5.01792,0 -2.70006,-7.116723 1.26957,0 1.53778,4.255729 q 0.23245,0.697373 0.44703,1.430497 0.16093,-0.554312 0.44703,-1.341086 l 1.59143,-4.34514 1.2338,0 -2.70006,7.116723 -1.12652,0 z m 4.89946,-8.439932 0,-1.394735 1.21592,0 0,1.394735 -1.21592,0 z m 0,8.439932 0,-7.116723 1.21592,0 0,7.116723 -1.21592,0 z m 5.67952,-1.072873 0.17881,1.054997 q -0.51856,0.10723 -0.91195,0.10723 -0.6616,0 -1.01922,-0.196699 -0.35763,-0.214574 -0.51856,-0.554312 -0.14305,-0.339748 -0.14305,-1.430497 l 0,-4.094803 -0.87618,0 0,-0.929823 0.87618,0 0,-1.770234 1.19804,-0.715249 0,2.485483 1.21593,0 0,0.929823 -1.21593,0 0,4.166328 q 0,0.51855 0.0537,0.661599 0.0715,0.14305 0.21457,0.232462 0.14305,0.08938 0.41127,0.08938 0.21458,0 0.53644,-0.03571 z m 1.13321,3.808707 -0.14305,-1.126525 q 0.39339,0.10723 0.69738,0.10723 0.39338,0 0.62583,-0.14305 0.25034,-0.125163 0.41128,-0.357624 0.10723,-0.196688 0.3755,-0.911936 0.0179,-0.08938 0.10723,-0.2861 l -2.71795,-7.134609 1.30534,0 1.48413,4.112679 q 0.2861,0.786773 0.51856,1.662958 0.21458,-0.840422 0.50068,-1.627196 l 1.51989,-4.148441 1.19805,0 -2.70007,7.241897 q -0.44702,1.162273 -0.67948,1.609309 -0.32187,0.607958 -0.75102,0.876178 -0.41126,0.28609 -0.98346,0.28609 -0.33974,0 -0.76889,-0.16092 z" />
  <path
     style="fill:#eeeeee;fill-rule:nonzero"
     inkscape:connector-curvature="0"
     id="path4801"
     d="m 14.059514,17.158776 136.732796,0 8.56063,8.560626 0,42.802108 -145.293427,0 z" />
  <path
     style="fill-rule:nonzero;stroke:#595959;stroke-width:1.14439762;stroke-linecap:butt;stroke-linejoin:round"
     inkscape:connector-curvature="0"
     id="path4803"
     d="m 14.059514,17.158776 136.732796,0 8.56063,8.560626 0,42.802108 -145.293427,0 z" />
  <path
     style="fill:#000000;fill-rule:nonzero"
     inkscape:connector-curvature="0"
     id="path4805"
     d="m 64.197139,38.708989 0,-9.834666 3.182856,0 q 1.806008,0 2.36032,0.143049 0.840423,0.232456 1.412622,0.983467 0.572198,0.73313 0.572198,1.895409 0,0.911941 -0.339748,1.537784 -0.321862,0.607961 -0.822536,0.965585 -0.500674,0.339743 -1.03711,0.464912 -0.697362,0.14305 -2.056334,0.14305 l -1.287447,0 0,3.70141 -1.984821,0 z m 1.984821,-8.171713 0,2.789469 1.090748,0 q 1.162284,0 1.555671,-0.14305 0.411262,-0.160931 0.625837,-0.482793 0.232461,-0.339743 0.232461,-0.768892 0,-0.536436 -0.321862,-0.876179 -0.321861,-0.357625 -0.80466,-0.447031 -0.339737,-0.07152 -1.41261,-0.07152 l -0.965585,0 z m 8.569569,3.218618 -1.716596,-0.303981 q 0.286099,-1.03711 0.983472,-1.519903 0.715249,-0.500674 2.109983,-0.500674 1.251685,0 1.859646,0.303981 0.625837,0.286099 0.876174,0.751011 0.250337,0.44703 0.250337,1.680834 l -0.01785,2.199389 q 0,0.947704 0.08938,1.394734 0.08938,0.429149 0.339748,0.947704 l -1.859646,0 q -0.07152,-0.196693 -0.178812,-0.554317 -0.05367,-0.178812 -0.07152,-0.232456 -0.482798,0.482793 -1.03711,0.715249 -0.536436,0.232455 -1.162284,0.232455 -1.108636,0 -1.752359,-0.59008 -0.625837,-0.607961 -0.625837,-1.519903 0,-0.607961 0.2861,-1.072872 0.303974,-0.464912 0.822535,-0.715249 0.51855,-0.268218 1.502022,-0.44703 1.305323,-0.250337 1.823884,-0.464912 l 0,-0.178812 q 0,-0.554317 -0.268224,-0.786773 -0.268213,-0.232456 -1.019224,-0.232456 -0.500673,0 -0.786773,0.196693 -0.268224,0.196694 -0.447036,0.697368 z m 2.521257,1.537784 q -0.357625,0.107287 -1.144398,0.286099 -0.786773,0.160931 -1.03711,0.321862 -0.357624,0.268218 -0.357624,0.661605 0,0.393387 0.286099,0.697367 0.303975,0.2861 0.751011,0.2861 0.518549,0 0.983461,-0.339743 0.339749,-0.250337 0.447036,-0.625843 0.07152,-0.232456 0.07152,-0.911942 l 0,-0.375505 z m 5.509645,3.415311 -1.877533,0 0,-7.116722 1.752358,0 0,1.001348 q 0.447036,-0.715249 0.804661,-0.929823 0.357624,-0.232456 0.804649,-0.232456 0.643723,0 1.251684,0.357624 l -0.590074,1.627191 q -0.482798,-0.303981 -0.876185,-0.303981 -0.411262,0 -0.679486,0.232456 -0.268213,0.214574 -0.429149,0.786773 -0.160925,0.554318 -0.160925,2.378201 l 0,2.199389 z m 7.668791,-2.270913 1.877533,0.321861 q -0.357624,1.037111 -1.144398,1.573547 -0.786773,0.536436 -1.949058,0.536436 -1.859634,0 -2.753695,-1.215922 -0.715248,-0.965586 -0.715248,-2.449726 0,-1.77024 0.929823,-2.771588 0.929823,-1.001348 2.342444,-1.001348 1.591411,0 2.503359,1.054992 0.929823,1.03711 0.876173,3.200737 l -4.720628,0 q 0.03571,0.840417 0.464911,1.305328 0.429149,0.464912 1.090748,0.464912 0.429149,0 0.733124,-0.232456 0.303987,-0.250337 0.464912,-0.786773 z m 0.10723,-1.895409 q -0.01785,-0.822536 -0.429149,-1.251685 -0.393387,-0.429149 -0.98345,-0.429149 -0.607961,0 -1.019234,0.44703 -0.393387,0.464912 -0.393387,1.233804 l 2.82522,0 z m 9.872668,4.166322 -1.877529,0 0,-3.629886 q 0,-1.162278 -0.125163,-1.502021 -0.10723,-0.339743 -0.393386,-0.518556 -0.268224,-0.196693 -0.643724,-0.196693 -0.500674,0 -0.894061,0.268218 -0.375511,0.268218 -0.518561,0.715249 -0.143049,0.44703 -0.143049,1.645071 l 0,3.218618 -1.895409,0 0,-7.116722 1.752359,0 0,1.03711 q 0.929823,-1.198041 2.36032,-1.198041 0.607961,0 1.126522,0.232456 0.51855,0.214574 0.786773,0.572199 0.268208,0.339743 0.357628,0.786773 0.10723,0.429149 0.10723,1.251685 l 0,4.43454 z m 5.18779,-7.116722 0,1.502022 -1.28745,0 0,2.860994 q 0,0.876179 0.0357,1.019229 0.0357,0.14305 0.16092,0.250337 0.14305,0.08941 0.32186,0.08941 0.26823,0 0.75101,-0.196694 l 0.16094,1.46626 q -0.64372,0.286099 -1.48415,0.286099 -0.50067,0 -0.91193,-0.160931 -0.41128,-0.178812 -0.60796,-0.44703 -0.17882,-0.2861 -0.26823,-0.73313 -0.0537,-0.339743 -0.0537,-1.341091 l 0,-3.093449 -0.8583,0 0,-1.502022 0.8583,0 0,-1.412616 1.89541,-1.108635 0,2.521251 1.28745,0 z" />
  <path
     style="fill:#000000;fill-rule:nonzero"
     inkscape:connector-curvature="0"
     id="path4807"
     d="m 50.135807,58.163748 0,-9.834666 3.719293,0 q 0.965585,0 1.48414,0.08941 0.73313,0.125169 1.215923,0.464912 0.500673,0.339743 0.786772,0.947704 0.303986,0.607961 0.303986,1.341091 0,1.251685 -0.804659,2.127864 -0.786773,0.858298 -2.878875,0.858298 l -2.521251,0 0,4.005392 -1.305329,0 z m 1.305329,-5.149789 2.539132,0 q 1.269566,0 1.788121,-0.464911 0.536437,-0.482793 0.536437,-1.341091 0,-0.607962 -0.321862,-1.037111 -0.303981,-0.44703 -0.804655,-0.59008 -0.339743,-0.08941 -1.215922,-0.08941 l -2.521251,0 0,3.522598 z m 7.264245,1.591428 q 0,-1.984815 1.090749,-2.932519 0.911947,-0.786773 2.235157,-0.786773 1.466259,0 2.396082,0.965585 0.947699,0.947705 0.947699,2.64642 0,1.376853 -0.411262,2.163626 -0.411274,0.786774 -1.215923,1.233804 -0.786773,0.429149 -1.716596,0.429149 -1.484146,0 -2.413969,-0.947704 -0.911937,-0.965586 -0.911937,-2.771588 z m 1.233798,0 q 0,1.358972 0.590086,2.038458 0.607961,0.679486 1.502022,0.679486 0.911936,0 1.502022,-0.679486 0.590074,-0.679486 0.590074,-2.07422 0,-1.32321 -0.607961,-2.002696 -0.590075,-0.679486 -1.484135,-0.679486 -0.894061,0 -1.502022,0.679486 -0.590086,0.661605 -0.590086,2.038458 z m 6.367955,1.430497 1.18016,-0.178812 q 0.10723,0.715248 0.554312,1.090754 0.464911,0.375505 1.305334,0.375505 0.822536,0 1.215922,-0.321862 0.411262,-0.339743 0.411262,-0.804654 0,-0.411268 -0.357624,-0.643724 -0.250337,-0.160931 -1.233798,-0.411268 -1.323209,-0.339743 -1.84177,-0.572198 -0.500674,-0.250337 -0.768887,-0.679487 -0.268224,-0.429149 -0.268224,-0.965585 0,-0.464911 0.214575,-0.876179 0.214575,-0.411268 0.590086,-0.679486 0.286099,-0.196694 0.768886,-0.339743 0.482799,-0.14305 1.054997,-0.14305 0.822536,0 1.448373,0.250337 0.643723,0.232456 0.94771,0.643723 0.303975,0.411268 0.411262,1.090754 l -1.18016,0.160931 q -0.07153,-0.536436 -0.464912,-0.840417 -0.375499,-0.321861 -1.090748,-0.321861 -0.822536,0 -1.18016,0.286099 -0.357624,0.268218 -0.357624,0.643724 0,0.232455 0.14305,0.411267 0.160925,0.196694 0.464911,0.321862 0.178812,0.07153 1.072873,0.303981 1.287447,0.357624 1.788121,0.572199 0.500674,0.214574 0.786773,0.625842 0.2861,0.411268 0.2861,1.03711 0,0.607962 -0.357624,1.144398 -0.339749,0.518555 -1.001348,0.822536 -0.661611,0.286099 -1.502022,0.286099 -1.394735,0 -2.12787,-0.572199 -0.715249,-0.59008 -0.911936,-1.716596 z m 9.977716,1.054991 0.178812,1.054992 q -0.518561,0.107287 -0.911947,0.107287 -0.661599,0 -1.019224,-0.196693 -0.357624,-0.214575 -0.51856,-0.554318 -0.14305,-0.339743 -0.14305,-1.430497 l 0,-4.094797 -0.876174,0 0,-0.929823 0.876174,0 0,-1.77024 1.198047,-0.715249 0,2.485489 1.215922,0 0,0.929823 -1.215922,0 0,4.166322 q 0,0.518555 0.05367,0.661605 0.07152,0.14305 0.214575,0.232456 0.143049,0.08941 0.411273,0.08941 0.214575,0 0.536437,-0.03576 z m 0.257032,1.072873 3.772941,-9.834666 1.394735,0 4.023267,9.834666 -1.466259,0 -1.162274,-2.986162 -4.094803,0 -1.090748,2.986162 -1.376859,0 z m 2.843118,-4.041154 3.325906,0 -1.019235,-2.717944 q -0.482787,-1.233804 -0.697362,-2.038458 -0.196699,0.947704 -0.536436,1.877527 L 79.385,54.122594 Z m 11.895464,1.430497 1.18016,0.160931 q -0.196688,1.215923 -1.001348,1.91329 -0.804649,0.697367 -1.966933,0.697367 -1.466248,0 -2.360309,-0.947704 -0.876174,-0.965586 -0.876174,-2.753707 0,-1.144397 0.3755,-2.002696 0.393387,-0.876179 1.162285,-1.305328 0.786773,-0.429149 1.716585,-0.429149 1.144397,0 1.877521,0.59008 0.751011,0.572199 0.965586,1.662953 l -1.18016,0.178812 q -0.160926,-0.715249 -0.590075,-1.072873 -0.429149,-0.375505 -1.03711,-0.375505 -0.911936,0 -1.484135,0.661604 -0.572199,0.643724 -0.572199,2.05634 0,1.448378 0.554324,2.092102 0.554311,0.643723 1.430485,0.643723 0.715249,0 1.18016,-0.429149 0.482787,-0.429149 0.625837,-1.341091 z m 4.845814,1.537784 0.178812,1.054992 q -0.518561,0.107287 -0.911947,0.107287 -0.6616,0 -1.019224,-0.196693 -0.357624,-0.214575 -0.518561,-0.554318 -0.143049,-0.339743 -0.143049,-1.430497 l 0,-4.094797 -0.876174,0 0,-0.929823 0.876174,0 0,-1.77024 1.198047,-0.715249 0,2.485489 1.215922,0 0,0.929823 -1.215922,0 0,4.166322 q 0,0.518555 0.05367,0.661605 0.07152,0.14305 0.214574,0.232456 0.14305,0.08941 0.411274,0.08941 0.214574,0 0.536436,-0.03576 z m 1.186866,-7.367059 0,-1.394734 1.215923,0 0,1.394734 -1.215923,0 z m 0,8.439932 0,-7.116722 1.215923,0 0,7.116722 -1.215923,0 z m 5.017906,0 -2.700054,-7.116722 1.269564,0 1.53778,4.255728 q 0.23246,0.697368 0.44704,1.430497 0.16092,-0.554317 0.44702,-1.341091 l 1.59143,-4.345134 1.2338,0 -2.70006,7.116722 -1.12652,0 z m 4.89945,-8.439932 0,-1.394734 1.21593,0 0,1.394734 -1.21593,0 z m 0,8.439932 0,-7.116722 1.21593,0 0,7.116722 -1.21593,0 z m 5.67952,-1.072873 0.17881,1.054992 q -0.51855,0.107287 -0.91193,0.107287 -0.66161,0 -1.01923,-0.196693 -0.35763,-0.214575 -0.51855,-0.554318 -0.14305,-0.339743 -0.14305,-1.430497 l 0,-4.094797 -0.87619,0 0,-0.929823 0.87619,0 0,-1.77024 1.19803,-0.715249 0,2.485489 1.21592,0 0,0.929823 -1.21592,0 0,4.166322 q 0,0.518555 0.0537,0.661605 0.0715,0.14305 0.21458,0.232456 0.14305,0.08941 0.41126,0.08941 0.21457,0 0.53643,-0.03576 z m 1.13323,3.808695 -0.14305,-1.12651 q 0.39338,0.10723 0.69736,0.10723 0.39339,0 0.62585,-0.14305 0.25033,-0.125174 0.41126,-0.357624 0.10723,-0.196699 0.37551,-0.911944 0.0178,-0.08941 0.10723,-0.2861 l -2.71794,-7.134603 1.30532,0 1.48414,4.112678 q 0.2861,0.786774 0.51855,1.662953 0.21458,-0.840417 0.50068,-1.62719 l 1.51991,-4.148441 1.19803,0 -2.70005,7.24189 q -0.44704,1.162282 -0.67949,1.609306 -0.32186,0.607961 -0.75101,0.876185 -0.41128,0.2861 -0.98347,0.2861 -0.33974,0 -0.76889,-0.160937 z" />
  <path
     style="fill:#eeeeee;fill-rule:nonzero"
     inkscape:connector-curvature="0"
     id="path4809"
     d="m 435.10581,332.23036 136.7328,0 8.56063,8.56064 0,42.8021 -145.29343,0 z" />
  <path
     style="fill-rule:nonzero;stroke:#595959;stroke-width:1.14439762;stroke-linecap:butt;stroke-linejoin:round"
     inkscape:connector-curvature="0"
     id="path4811"
     d="m 435.10581,332.23036 136.7328,0 8.56063,8.56064 0,42.8021 -145.29343,0 z" />
  <path
     style="fill:#000000;fill-rule:nonzero"
     inkscape:connector-curvature="0"
     id="path4813"
     d="m 495.7453,350.16857 1.91329,0.60796 q -0.42915,1.60931 -1.46626,2.39608 -1.03711,0.7689 -2.61066,0.7689 -1.96693,0 -3.23649,-1.32321 -1.25169,-1.3411 -1.25169,-3.66566 0,-2.44972 1.26956,-3.80869 1.26958,-1.35897 3.3438,-1.35897 1.80599,0 2.93251,1.05499 0.6616,0.64372 1.00135,1.82388 l -1.96693,0.46491 q -0.17881,-0.76889 -0.73314,-1.19803 -0.55431,-0.44704 -1.34108,-0.44704 -1.09076,0 -1.77025,0.78677 -0.67948,0.7689 -0.67948,2.53913 0,1.85965 0.66161,2.64642 0.67948,0.78678 1.75236,0.78678 0.78677,0 1.35897,-0.50068 0.5722,-0.50067 0.82253,-1.57354 z m 5.48284,-6.22266 0,3.612 q 0.91193,-1.05499 2.1815,-1.05499 0.64373,0 1.16228,0.25034 0.53643,0.23245 0.80466,0.60796 0.26821,0.3755 0.35762,0.84041 0.0894,0.44704 0.0894,1.39474 l 0,4.1842 -1.87752,0 0,-3.75505 q 0,-1.12651 -0.10723,-1.4305 -0.10723,-0.30397 -0.37551,-0.48279 -0.26822,-0.17881 -0.67949,-0.17881 -0.46491,0 -0.84041,0.23245 -0.37551,0.23246 -0.55432,0.69737 -0.16093,0.44703 -0.16093,1.34109 l 0,3.57624 -1.87753,0 0,-9.83466 1.87753,0 z m 6.51099,1.75235 0,-1.75235 1.89541,0 0,1.75235 -1.89541,0 z m 0,8.08231 0,-7.11672 1.89541,0 0,7.11672 -1.89541,0 z m 3.8154,0 0,-9.83466 1.89541,0 0,9.83466 -1.89541,0 z m 10.34204,0 -1.73447,0 0,-1.05498 q -0.44703,0.62583 -1.03711,0.92982 -0.59008,0.2861 -1.19805,0.2861 -1.23379,0 -2.10998,-0.98347 -0.8583,-1.00135 -0.8583,-2.77159 0,-1.806 0.84043,-2.73583 0.85829,-0.9477 2.16362,-0.9477 1.18016,0 2.05634,0.98347 l 0,-3.54048 1.87752,0 0,9.83466 z m -5.02461,-3.71929 q 0,1.1444 0.32186,1.64507 0.44703,0.75101 1.26956,0.75101 0.64372,0 1.09076,-0.55431 0.46491,-0.55432 0.46491,-1.66296 0,-1.21592 -0.44703,-1.75236 -0.42915,-0.55431 -1.12651,-0.55431 -0.66161,0 -1.12653,0.53644 -0.44702,0.53643 -0.44702,1.59142 z" />
  <path
     style="fill:#000000;fill-rule:nonzero"
     inkscape:connector-curvature="0"
     id="path4815"
     d="m 474.23642,373.23533 0,-9.83467 3.71929,0 q 0.96559,0 1.48414,0.0894 0.73313,0.12516 1.21592,0.46491 0.50067,0.33974 0.78677,0.9477 0.30399,0.60796 0.30399,1.3411 0,1.25168 -0.80466,2.12786 -0.78677,0.85829 -2.87887,0.85829 l -2.52126,0 0,4.0054 -1.30532,0 z m 1.30532,-5.14979 2.53914,0 q 1.26957,0 1.78812,-0.46491 0.53643,-0.48279 0.53643,-1.34109 0,-0.60796 -0.32186,-1.03711 -0.30397,-0.44703 -0.80465,-0.59008 -0.33975,-0.0894 -1.21592,-0.0894 l -2.52126,0 0,3.52259 z m 7.6934,5.14979 0,-7.11672 1.09076,0 0,1.07287 q 0.41126,-0.75101 0.75101,-0.98346 0.35762,-0.25034 0.78677,-0.25034 0.60796,0 1.2338,0.3755 l -0.41126,1.12652 q -0.44704,-0.26822 -0.87619,-0.26822 -0.41126,0 -0.73312,0.25034 -0.30399,0.23246 -0.42915,0.66161 -0.21457,0.64372 -0.21457,1.39473 l 0,3.73717 -1.19805,0 z m 9.45469,-2.28879 1.25169,0.14304 q -0.2861,1.09076 -1.09075,1.69873 -0.80466,0.60796 -2.03846,0.60796 -1.55567,0 -2.48549,-0.96559 -0.91194,-0.96558 -0.91194,-2.70007 0,-1.78812 0.92982,-2.77158 0.92983,-1.00135 2.39608,-1.00135 1.4305,0 2.32456,0.96559 0.91194,0.96558 0.91194,2.73582 0,0.10723 0,0.32186 l -5.31072,0 q 0.0715,1.18016 0.6616,1.80601 0.59009,0.60796 1.48415,0.60796 0.6616,0 1.12651,-0.33975 0.4828,-0.35762 0.75101,-1.10863 z m -3.95174,-1.94905 3.96963,0 q -0.0715,-0.91195 -0.44704,-1.35897 -0.59007,-0.69738 -1.50202,-0.69738 -0.84041,0 -1.41261,0.55433 -0.55432,0.55431 -0.60796,1.50202 z m 5.79574,4.23784 3.77293,-9.83467 1.39474,0 4.02328,9.83467 -1.46626,0 -1.16229,-2.98616 -4.09479,0 -1.09076,2.98616 -1.37685,0 z m 2.84311,-4.04115 3.32591,0 -1.01923,-2.71795 q -0.4828,-1.2338 -0.69737,-2.03846 -0.19669,0.94771 -0.53644,1.87754 l -1.07287,2.87887 z m 11.89548,1.43049 1.18016,0.16094 q -0.19669,1.21592 -1.00135,1.91328 -0.80465,0.69738 -1.96694,0.69738 -1.46626,0 -2.36032,-0.94771 -0.87617,-0.96559 -0.87617,-2.75371 0,-1.1444 0.3755,-2.0027 0.39339,-0.87617 1.16228,-1.30532 0.78678,-0.42915 1.7166,-0.42915 1.1444,0 1.87752,0.59008 0.75101,0.5722 0.96559,1.66296 l -1.18016,0.17881 q -0.16093,-0.71525 -0.59008,-1.07288 -0.42915,-0.37551 -1.03711,-0.37551 -0.91194,0 -1.48414,0.66161 -0.5722,0.64373 -0.5722,2.05634 0,1.44838 0.55432,2.09211 0.55431,0.64372 1.4305,0.64372 0.71525,0 1.18016,-0.42915 0.48279,-0.42915 0.62584,-1.3411 z m 4.84581,1.53779 0.17881,1.05499 q -0.51856,0.10724 -0.91195,0.10724 -0.6616,0 -1.01922,-0.1967 -0.35762,-0.21458 -0.51856,-0.55432 -0.14305,-0.33974 -0.14305,-1.43049 l 0,-4.09481 -0.87617,0 0,-0.92982 0.87617,0 0,-1.77023 1.19805,-0.71525 0,2.48548 1.21592,0 0,0.92982 -1.21592,0 0,4.16633 q 0,0.51855 0.0537,0.6616 0.0715,0.14305 0.21457,0.23246 0.14305,0.0894 0.41128,0.0894 0.21457,0 0.53643,-0.0357 z m 1.18687,-7.36706 0,-1.39474 1.21592,0 0,1.39474 -1.21592,0 z m 0,8.43993 0,-7.11672 1.21592,0 0,7.11672 -1.21592,0 z m 5.0179,0 -2.70005,-7.11672 1.26956,0 1.53778,4.25573 q 0.23246,0.69737 0.44704,1.43049 0.16092,-0.55431 0.44702,-1.34108 l 1.59144,-4.34514 1.23379,0 -2.70005,7.11672 -1.12653,0 z m 4.89946,-8.43993 0,-1.39474 1.21592,0 0,1.39474 -1.21592,0 z m 0,8.43993 0,-7.11672 1.21592,0 0,7.11672 -1.21592,0 z m 5.67948,-1.07287 0.17881,1.05499 q -0.51855,0.10724 -0.91193,0.10724 -0.66161,0 -1.01924,-0.1967 -0.35762,-0.21458 -0.51851,-0.55432 -0.14305,-0.33974 -0.14305,-1.43049 l 0,-4.09481 -0.87619,0 0,-0.92982 0.87619,0 0,-1.77023 1.198,-0.71525 0,2.48548 1.21592,0 0,0.92982 -1.21592,0 0,4.16633 q 0,0.51855 0.0537,0.6616 0.0715,0.14305 0.21458,0.23246 0.14305,0.0894 0.41126,0.0894 0.21457,0 0.53643,-0.0357 z m 1.13323,3.8087 -0.14305,-1.12652 q 0.39339,0.10723 0.69736,0.10723 0.39339,0 0.62585,-0.14305 0.25034,-0.12516 0.41126,-0.35762 0.10723,-0.19669 0.37551,-0.91194 0.0179,-0.0894 0.10723,-0.2861 l -2.71794,-7.13461 1.30532,0 1.48415,4.11268 q 0.2861,0.78677 0.51855,1.66296 0.21457,-0.84042 0.50067,-1.6272 l 1.51991,-4.14844 1.19804,0 -2.70006,7.2419 q -0.44704,1.16227 -0.67949,1.60931 -0.32186,0.60796 -0.75101,0.87617 -0.41127,0.2861 -0.98347,0.2861 -0.33974,0 -0.76889,-0.16093 z" />
  <path
     style="fill:#eeeeee;fill-rule:nonzero"
     inkscape:connector-curvature="0"
     id="path4817"
     d="m 435.10581,250.19569 136.7328,0 8.56063,8.56063 0,42.80207 -145.29343,0 z" />
  <path
     style="fill-rule:nonzero;stroke:#595959;stroke-width:1.14439762;stroke-linecap:butt;stroke-linejoin:round"
     inkscape:connector-curvature="0"
     id="path4819"
     d="m 435.10581,250.19569 136.7328,0 8.56063,8.56063 0,42.80207 -145.29343,0 z" />
  <path
     style="fill:#000000;fill-rule:nonzero"
     inkscape:connector-curvature="0"
     id="path4821"
     d="m 495.7453,268.13389 1.91329,0.60796 q -0.42915,1.60931 -1.46626,2.39609 -1.03711,0.76889 -2.61066,0.76889 -1.96693,0 -3.23649,-1.32321 -1.25169,-1.34109 -1.25169,-3.66565 0,-2.44972 1.26956,-3.80869 1.26958,-1.35898 3.3438,-1.35898 1.80599,0 2.93251,1.05499 0.6616,0.64372 1.00135,1.82388 l -1.96693,0.46492 q -0.17881,-0.76889 -0.73314,-1.19804 -0.55431,-0.44704 -1.34108,-0.44704 -1.09076,0 -1.77025,0.78678 -0.67948,0.7689 -0.67948,2.53913 0,1.85965 0.66161,2.64642 0.67948,0.78677 1.75236,0.78677 0.78677,0 1.35897,-0.50067 0.5722,-0.50068 0.82253,-1.57355 z m 5.48284,-6.22266 0,3.612 q 0.91193,-1.05498 2.1815,-1.05498 0.64373,0 1.16228,0.25034 0.53643,0.23245 0.80466,0.60796 0.26821,0.3755 0.35762,0.84041 0.0894,0.44703 0.0894,1.39473 l 0,4.18421 -1.87752,0 0,-3.75506 q 0,-1.12651 -0.10723,-1.43049 -0.10723,-0.30398 -0.37551,-0.48279 -0.26822,-0.17881 -0.67949,-0.17881 -0.46491,0 -0.84041,0.23245 -0.37551,0.23246 -0.55432,0.69737 -0.16093,0.44702 -0.16093,1.34108 l 0,3.57625 -1.87753,0 0,-9.83467 1.87753,0 z m 6.51099,1.75236 0,-1.75236 1.89541,0 0,1.75236 -1.89541,0 z m 0,8.08231 0,-7.11673 1.89541,0 0,7.11673 -1.89541,0 z m 3.8154,0 0,-9.83467 1.89541,0 0,9.83467 -1.89541,0 z m 10.34204,0 -1.73447,0 0,-1.05499 q -0.44703,0.62584 -1.03711,0.92982 -0.59008,0.2861 -1.19805,0.2861 -1.23379,0 -2.10998,-0.98347 -0.8583,-1.00135 -0.8583,-2.77158 0,-1.80601 0.84043,-2.73583 0.85829,-0.9477 2.16362,-0.9477 1.18016,0 2.05634,0.98346 l 0,-3.54048 1.87752,0 0,9.83467 z m -5.02461,-3.7193 q 0,1.1444 0.32186,1.64508 0.44703,0.75101 1.26956,0.75101 0.64372,0 1.09076,-0.55431 0.46491,-0.55433 0.46491,-1.66296 0,-1.21593 -0.44703,-1.75236 -0.42915,-0.55431 -1.12651,-0.55431 -0.66161,0 -1.12653,0.53643 -0.44702,0.53644 -0.44702,1.59142 z" />
  <path
     style="fill:#000000;fill-rule:nonzero"
     inkscape:connector-curvature="0"
     id="path4823"
     d="m 462.02243,291.20066 0,-9.83467 3.71929,0 q 0.96558,0 1.48414,0.0894 0.73313,0.12516 1.21593,0.46491 0.50067,0.33973 0.78677,0.9477 0.30397,0.60796 0.30397,1.34109 0,1.25169 -0.80464,2.12786 -0.78678,0.8583 -2.87889,0.8583 l -2.52124,0 0,4.00539 -1.30533,0 z m 1.30533,-5.14979 2.53913,0 q 1.26956,0 1.78812,-0.46492 0.53644,-0.48278 0.53644,-1.34108 0,-0.60796 -0.32186,-1.03711 -0.30399,-0.44704 -0.80466,-0.59009 -0.33974,-0.0894 -1.21593,-0.0894 l -2.52124,0 0,3.52259 z m 12.36039,4.27361 q -0.67949,0.5722 -1.30534,0.80465 -0.60796,0.23246 -1.32321,0.23246 -1.18016,0 -1.80599,-0.5722 -0.62585,-0.5722 -0.62585,-1.46626 0,-0.51856 0.23246,-0.94771 0.23245,-0.44702 0.62584,-0.69736 0.39338,-0.26822 0.87618,-0.39338 0.33974,-0.10723 1.07287,-0.1967 1.44838,-0.16093 2.14575,-0.41127 0,-0.25033 0,-0.30398 0,-0.75101 -0.33975,-1.05499 -0.46491,-0.39338 -1.37685,-0.39338 -0.84042,0 -1.25168,0.30397 -0.41128,0.2861 -0.60796,1.03711 l -1.18016,-0.16092 q 0.16092,-0.75102 0.53643,-1.21593 0.3755,-0.46491 1.07288,-0.71525 0.69736,-0.25033 1.6093,-0.25033 0.91194,0 1.48414,0.21457 0.5722,0.21458 0.84042,0.53644 0.26821,0.32186 0.3755,0.82253 0.0537,0.30398 0.0537,1.10864 l 0,1.60931 q 0,1.68083 0.0715,2.12786 0.0894,0.44703 0.32186,0.8583 l -1.26957,0 q -0.17881,-0.3755 -0.23245,-0.87618 z m -0.10723,-2.70007 q -0.66161,0.26823 -1.96694,0.46491 -0.75101,0.10723 -1.05499,0.25034 -0.30398,0.12518 -0.48279,0.37551 -0.16094,0.25034 -0.16094,0.5722 0,0.48279 0.35763,0.80465 0.37551,0.32186 1.07287,0.32186 0.69737,0 1.23381,-0.30397 0.55431,-0.30399 0.80465,-0.84043 0.1967,-0.41126 0.1967,-1.19803 l 0,-0.44704 z m 3.0778,3.57625 0,-7.11673 1.09074,0 0,1.07288 q 0.41128,-0.75102 0.75101,-0.98347 0.35763,-0.25033 0.78678,-0.25033 0.60796,0 1.23381,0.3755 l -0.41128,1.12652 q -0.44702,-0.26822 -0.87617,-0.26822 -0.41127,0 -0.73314,0.25033 -0.30397,0.23246 -0.42914,0.66161 -0.21458,0.64373 -0.21458,1.39474 l 0,3.73717 -1.19803,0 z m 9.24011,-0.87618 q -0.67948,0.5722 -1.30533,0.80465 -0.60796,0.23246 -1.32321,0.23246 -1.18016,0 -1.806,-0.5722 -0.62585,-0.5722 -0.62585,-1.46626 0,-0.51856 0.23247,-0.94771 0.23245,-0.44702 0.62583,-0.69736 0.39339,-0.26822 0.87619,-0.39338 0.33974,-0.10723 1.07287,-0.1967 1.44837,-0.16093 2.14575,-0.41127 0,-0.25033 0,-0.30398 0,-0.75101 -0.33975,-1.05499 -0.46491,-0.39338 -1.37685,-0.39338 -0.84042,0 -1.25168,0.30397 -0.41128,0.2861 -0.60797,1.03711 l -1.18016,-0.16092 q 0.16093,-0.75102 0.53644,-1.21593 0.3755,-0.46491 1.07287,-0.71525 0.69736,-0.25033 1.60931,-0.25033 0.91194,0 1.48414,0.21457 0.5722,0.21458 0.84042,0.53644 0.26821,0.32186 0.3755,0.82253 0.0537,0.30398 0.0537,1.10864 l 0,1.60931 q 0,1.68083 0.0715,2.12786 0.0894,0.44703 0.32186,0.8583 l -1.26957,0 q -0.17882,-0.3755 -0.23245,-0.87618 z m -0.10723,-2.70007 q -0.66161,0.26823 -1.96693,0.46491 -0.75101,0.10723 -1.055,0.25034 -0.30397,0.12518 -0.48278,0.37551 -0.16094,0.25034 -0.16094,0.5722 0,0.48279 0.35762,0.80465 0.37551,0.32186 1.07288,0.32186 0.69737,0 1.23381,-0.30397 0.55431,-0.30399 0.80464,-0.84043 0.1967,-0.41126 0.1967,-1.19803 l 0,-0.44704 z m 3.05993,3.57625 0,-9.83467 1.21592,0 0,9.83467 -1.21592,0 z m 3.05097,0 0,-9.83467 1.21593,0 0,9.83467 -1.21593,0 z m 7.95044,-2.2888 1.25169,0.14305 q -0.2861,1.09076 -1.09076,1.69872 -0.80465,0.60796 -2.03846,0.60796 -1.55566,0 -2.48548,-0.96558 -0.91195,-0.96559 -0.91195,-2.70007 0,-1.78812 0.92982,-2.77158 0.92983,-1.00135 2.39608,-1.00135 1.4305,0 2.32456,0.96558 0.91195,0.96559 0.91195,2.73582 0,0.10723 0,0.32186 l -5.31073,0 q 0.0715,1.18016 0.66161,1.80601 0.59008,0.60796 1.48414,0.60796 0.66161,0 1.12652,-0.33974 0.48279,-0.35763 0.75101,-1.10864 z m -3.95175,-1.94905 3.96963,0 q -0.0715,-0.91194 -0.44703,-1.35897 -0.59008,-0.69737 -1.50202,-0.69737 -0.84042,0 -1.41262,0.55432 -0.55431,0.55431 -0.60796,1.50202 z m 6.68982,4.23785 0,-9.83467 1.21592,0 0,9.83467 -1.21592,0 z m 2.15691,0 3.77294,-9.83467 1.39474,0 4.02326,9.83467 -1.46626,0 -1.16227,-2.98616 -4.0948,0 -1.09075,2.98616 -1.37686,0 z m 2.84312,-4.04116 3.3259,0 -1.01923,-2.71794 q -0.48279,-1.2338 -0.69736,-2.03846 -0.1967,0.94771 -0.53644,1.87753 l -1.07287,2.87887 z m 11.89547,1.4305 1.18016,0.16093 q -0.1967,1.21593 -1.00134,1.91329 -0.80466,0.69737 -1.96694,0.69737 -1.46626,0 -2.36032,-0.94771 -0.87618,-0.96558 -0.87618,-2.7537 0,-1.1444 0.37551,-2.0027 0.39338,-0.87617 1.16227,-1.30532 0.78677,-0.42915 1.7166,-0.42915 1.1444,0 1.87753,0.59007 0.75101,0.5722 0.96559,1.66296 l -1.18016,0.17881 q -0.16094,-0.71525 -0.59009,-1.07287 -0.42915,-0.37551 -1.03711,-0.37551 -0.91194,0 -1.48413,0.66161 -0.5722,0.64372 -0.5722,2.05633 0,1.44839 0.55431,2.09211 0.55432,0.64372 1.4305,0.64372 0.71524,0 1.18016,-0.42915 0.48279,-0.42914 0.62584,-1.34109 z m 4.84581,1.53778 0.17881,1.055 q -0.51855,0.10723 -0.91194,0.10723 -0.66161,0 -1.01923,-0.1967 -0.35763,-0.21457 -0.51855,-0.55431 -0.14305,-0.33975 -0.14305,-1.4305 l 0,-4.0948 -0.87619,0 0,-0.92982 0.87619,0 0,-1.77024 1.19803,-0.71525 0,2.48549 1.21593,0 0,0.92982 -1.21593,0 0,4.16633 q 0,0.51855 0.0537,0.6616 0.0715,0.14305 0.21457,0.23246 0.14305,0.0894 0.41126,0.0894 0.21458,0 0.53644,-0.0357 z m 1.18686,-7.36706 0,-1.39473 1.21589,0 0,1.39473 -1.21589,0 z m 0,8.43994 0,-7.11673 1.21589,0 0,7.11673 -1.21589,0 z m 5.01789,0 -2.70007,-7.11673 1.26957,0 1.53779,4.25573 q 0.23245,0.69737 0.44702,1.4305 0.16094,-0.55431 0.44704,-1.34109 l 1.59142,-4.34514 1.23381,0 -2.70007,7.11673 -1.12651,0 z m 4.89945,-8.43994 0,-1.39473 1.21592,0 0,1.39473 -1.21592,0 z m 0,8.43994 0,-7.11673 1.21592,0 0,7.11673 -1.21592,0 z m 5.67952,-1.07288 0.17881,1.055 q -0.51856,0.10723 -0.91195,0.10723 -0.6616,0 -1.01922,-0.1967 -0.35762,-0.21457 -0.51856,-0.55431 -0.14305,-0.33975 -0.14305,-1.4305 l 0,-4.0948 -0.87617,0 0,-0.92982 0.87617,0 0,-1.77024 1.19805,-0.71525 0,2.48549 1.21592,0 0,0.92982 -1.21592,0 0,4.16633 q 0,0.51855 0.0537,0.6616 0.0715,0.14305 0.21457,0.23246 0.14305,0.0894 0.41128,0.0894 0.21457,0 0.53643,-0.0357 z m 1.13322,3.80871 -0.14305,-1.12653 q 0.39338,0.10723 0.69737,0.10723 0.39339,0 0.62584,-0.14305 0.25033,-0.12516 0.41127,-0.35762 0.10723,-0.19669 0.3755,-0.91194 0.0179,-0.0894 0.10723,-0.28609 l -2.71794,-7.13461 1.30533,0 1.48413,4.11267 q 0.2861,0.78678 0.51857,1.66296 0.21457,-0.84042 0.50067,-1.62719 l 1.5199,-4.14844 1.19804,0 -2.70007,7.24189 q -0.44702,1.16228 -0.67948,1.60931 -0.32186,0.60796 -0.75101,0.87618 -0.41126,0.28609 -0.98346,0.28609 -0.33975,0 -0.7689,-0.16092 z" />
  <path
     style="fill:#eeeeee;fill-rule:nonzero"
     inkscape:connector-curvature="0"
     id="path4825"
     d="m 247.33916,210.16182 136.73281,0 8.56063,8.56064 0,42.8021 -145.29344,0 z" />
  <path
     style="fill-rule:nonzero;stroke:#595959;stroke-width:1.14439762;stroke-linecap:butt;stroke-linejoin:round"
     inkscape:connector-curvature="0"
     id="path4827"
     d="m 247.33916,210.16182 136.73281,0 8.56063,8.56064 0,42.8021 -145.29344,0 z" />
  <path
     style="fill:#000000;fill-rule:nonzero"
     inkscape:connector-curvature="0"
     id="path4829"
     d="m 307.97866,228.10005 1.91329,0.60796 q -0.42915,1.60931 -1.46626,2.39608 -1.03711,0.76889 -2.61066,0.76889 -1.96693,0 -3.23649,-1.32321 -1.25169,-1.34109 -1.25169,-3.66564 0,-2.44973 1.26956,-3.80871 1.26957,-1.35897 3.34379,-1.35897 1.806,0 2.93252,1.055 0.6616,0.64372 1.00135,1.82388 l -1.96693,0.46491 q -0.17882,-0.76889 -0.73314,-1.19804 -0.55431,-0.44703 -1.34108,-0.44703 -1.09076,0 -1.77025,0.78678 -0.67949,0.76888 -0.67949,2.53913 0,1.85964 0.66161,2.64642 0.67949,0.78677 1.75236,0.78677 0.78678,0 1.35898,-0.50067 0.57219,-0.50068 0.82253,-1.57355 z m 5.48283,-6.22266 0,3.612 q 0.91194,-1.05499 2.18151,-1.05499 0.64372,0 1.16227,0.25033 0.53644,0.23246 0.80466,0.60796 0.26822,0.37551 0.35763,0.84043 0.0894,0.44702 0.0894,1.39473 l 0,4.1842 -1.87753,0 0,-3.75505 q 0,-1.12652 -0.10723,-1.4305 -0.10723,-0.30398 -0.37551,-0.4828 -0.26821,-0.17881 -0.67948,-0.17881 -0.46491,0 -0.84041,0.23246 -0.37552,0.23245 -0.55433,0.69737 -0.16092,0.44703 -0.16092,1.34109 l 0,3.57624 -1.87754,0 0,-9.83466 1.87754,0 z m 6.511,1.75236 0,-1.75236 1.8954,0 0,1.75236 -1.8954,0 z m 0,8.0823 0,-7.11672 1.8954,0 0,7.11672 -1.8954,0 z m 3.81539,0 0,-9.83466 1.89541,0 0,9.83466 -1.89541,0 z m 10.34205,0 -1.73447,0 0,-1.05499 q -0.44704,0.62585 -1.03711,0.92982 -0.59009,0.2861 -1.19805,0.2861 -1.2338,0 -2.10998,-0.98346 -0.8583,-1.00135 -0.8583,-2.7716 0,-1.80599 0.84042,-2.73581 0.8583,-0.94771 2.16362,-0.94771 1.18016,0 2.05635,0.98347 l 0,-3.54048 1.87752,0 0,9.83466 z m -5.02461,-3.71929 q 0,1.1444 0.32186,1.64507 0.44702,0.75101 1.26956,0.75101 0.64372,0 1.09076,-0.55432 0.46491,-0.55431 0.46491,-1.66295 0,-1.21592 -0.44704,-1.75235 -0.42915,-0.55433 -1.12651,-0.55433 -0.66161,0 -1.12652,0.53644 -0.44702,0.53643 -0.44702,1.59143 z" />
  <path
     style="fill:#000000;fill-rule:nonzero"
     inkscape:connector-curvature="0"
     id="path4831"
     d="m 283.41546,251.16679 0,-9.83466 3.71929,0 q 0.96559,0 1.48414,0.0894 0.73313,0.12517 1.21592,0.46491 0.50067,0.33974 0.78677,0.9477 0.30399,0.60796 0.30399,1.3411 0,1.25168 -0.80466,2.12786 -0.78677,0.8583 -2.87887,0.8583 l -2.52126,0 0,4.00538 -1.30532,0 z m 1.30532,-5.14977 2.53914,0 q 1.26957,0 1.78812,-0.46491 0.53643,-0.4828 0.53643,-1.34109 0,-0.60797 -0.32186,-1.03711 -0.30397,-0.44703 -0.80465,-0.59008 -0.33975,-0.0894 -1.21592,-0.0894 l -2.52126,0 0,3.52261 z m 7.26425,1.59143 q 0,-1.98481 1.09076,-2.93252 0.91194,-0.78678 2.23515,-0.78678 1.46626,0 2.39608,0.96559 0.94771,0.94771 0.94771,2.64642 0,1.37683 -0.41128,2.16361 -0.41126,0.78677 -1.21592,1.2338 -0.78677,0.42915 -1.71659,0.42915 -1.48414,0 -2.41396,-0.9477 -0.91195,-0.96559 -0.91195,-2.77157 z m 1.23381,0 q 0,1.35895 0.59007,2.03843 0.60797,0.67949 1.50203,0.67949 0.91194,0 1.50202,-0.67949 0.59008,-0.67948 0.59008,-2.0742 0,-1.32321 -0.60796,-2.00269 -0.59008,-0.67949 -1.48414,-0.67949 -0.89406,0 -1.50203,0.67949 -0.59007,0.66161 -0.59007,2.03846 z m 6.36794,1.43047 1.18016,-0.17881 q 0.10723,0.71525 0.55431,1.09076 0.46492,0.3755 1.30534,0.3755 0.82253,0 1.21592,-0.32186 0.41126,-0.33974 0.41126,-0.80465 0,-0.41128 -0.35762,-0.64373 -0.25034,-0.16093 -1.2338,-0.41127 -1.32321,-0.33971 -1.84177,-0.57218 -0.50067,-0.25033 -0.76889,-0.67948 -0.26822,-0.42915 -0.26822,-0.96559 0,-0.46491 0.21457,-0.87617 0.21458,-0.41128 0.59009,-0.67949 0.2861,-0.1967 0.76889,-0.33975 0.4828,-0.14305 1.05499,-0.14305 0.82254,0 1.44838,0.25034 0.64372,0.23246 0.94771,0.64372 0.30397,0.41128 0.41126,1.09076 l -1.18016,0.16093 q -0.0715,-0.53644 -0.46491,-0.84041 -0.3755,-0.32186 -1.09075,-0.32186 -0.82254,0 -1.18016,0.2861 -0.35763,0.26821 -0.35763,0.64372 0,0.23245 0.14305,0.41126 0.16093,0.1967 0.46492,0.32186 0.17881,0.0715 1.07287,0.30399 1.28745,0.35762 1.78812,0.5722 0.50067,0.21457 0.78677,0.62581 0.2861,0.41128 0.2861,1.03711 0,0.60796 -0.35762,1.1444 -0.33975,0.51856 -1.00135,0.82254 -0.66161,0.2861 -1.50202,0.2861 -1.39474,0 -2.12787,-0.5722 -0.71525,-0.59008 -0.91194,-1.7166 z m 9.97772,1.055 0.17881,1.05498 q -0.51856,0.10723 -0.91195,0.10723 -0.6616,0 -1.01922,-0.19668 -0.35762,-0.21458 -0.51856,-0.55433 -0.14305,-0.33973 -0.14305,-1.43049 l 0,-4.09477 -0.87617,0 0,-0.92983 0.87617,0 0,-1.77024 1.19805,-0.71525 0,2.48549 1.21592,0 0,0.92983 -1.21592,0 0,4.16629 q 0,0.51856 0.0537,0.66161 0.0715,0.14305 0.21457,0.23245 0.14305,0.0894 0.41128,0.0894 0.21457,0 0.53643,-0.0357 z m 0.25704,1.07287 3.77293,-9.83466 1.39474,0 4.02328,9.83466 -1.46626,0 -1.16229,-2.98617 -4.09479,0 -1.09076,2.98617 -1.37685,0 z m 2.84311,-4.04113 3.3259,0 -1.01922,-2.71795 q -0.4828,-1.2338 -0.69737,-2.03845 -0.19669,0.9477 -0.53644,1.87752 l -1.07287,2.87888 z m 11.89547,1.43047 1.18016,0.16093 q -0.19668,1.21592 -1.00134,1.91329 -0.80465,0.69737 -1.96694,0.69737 -1.46626,0 -2.36032,-0.9477 -0.87617,-0.96559 -0.87617,-2.75369 0,-1.14439 0.3755,-2.00269 0.39339,-0.87619 1.16228,-1.30534 0.78678,-0.42915 1.7166,-0.42915 1.1444,0 1.87752,0.59009 0.75101,0.5722 0.96559,1.66295 l -1.18016,0.17881 q -0.16093,-0.71525 -0.59008,-1.07287 -0.42915,-0.3755 -1.03711,-0.3755 -0.91195,0 -1.48414,0.6616 -0.5722,0.64372 -0.5722,2.05634 0,1.44835 0.55432,2.09207 0.55431,0.64373 1.4305,0.64373 0.71525,0 1.18016,-0.42915 0.48278,-0.42915 0.62583,-1.34109 z m 4.84582,1.53779 0.17881,1.05498 q -0.51856,0.10723 -0.91195,0.10723 -0.6616,0 -1.01922,-0.19668 -0.35762,-0.21458 -0.51856,-0.55433 -0.14305,-0.33973 -0.14305,-1.43049 l 0,-4.09477 -0.87617,0 0,-0.92983 0.87617,0 0,-1.77024 1.19805,-0.71525 0,2.48549 1.21592,0 0,0.92983 -1.21592,0 0,4.16629 q 0,0.51856 0.0537,0.66161 0.0715,0.14305 0.21457,0.23245 0.14305,0.0894 0.41128,0.0894 0.21457,0 0.53643,-0.0357 z m 1.18686,-7.36704 0,-1.39473 1.21593,0 0,1.39473 -1.21593,0 z m 0,8.43991 0,-7.1167 1.21593,0 0,7.1167 -1.21593,0 z m 5.01791,0 -2.70005,-7.1167 1.26956,0 1.53778,4.25571 q 0.23246,0.69736 0.44704,1.43049 0.16092,-0.55432 0.44702,-1.34109 l 1.59143,-4.34511 1.2338,0 -2.70005,7.1167 -1.12653,0 z m 4.89946,-8.43991 0,-1.39473 1.21592,0 0,1.39473 -1.21592,0 z m 0,8.43991 0,-7.1167 1.21592,0 0,7.1167 -1.21592,0 z m 5.67953,-1.07287 0.17881,1.05498 q -0.51856,0.10723 -0.91195,0.10723 -0.6616,0 -1.01922,-0.19668 -0.35763,-0.21458 -0.51856,-0.55433 -0.14305,-0.33973 -0.14305,-1.43049 l 0,-4.09477 -0.87618,0 0,-0.92983 0.87618,0 0,-1.77024 1.19804,-0.71525 0,2.48549 1.21593,0 0,0.92983 -1.21593,0 0,4.16629 q 0,0.51856 0.0537,0.66161 0.0715,0.14305 0.21457,0.23245 0.14305,0.0894 0.41127,0.0894 0.21458,0 0.53644,-0.0357 z m 1.13321,3.80869 -0.14305,-1.12651 q 0.39339,0.10723 0.69736,0.10723 0.39339,0 0.62585,-0.14305 0.25034,-0.12517 0.41126,-0.35762 0.10723,-0.1967 0.37552,-0.91195 0.0179,-0.0894 0.10723,-0.2861 l -2.71795,-7.13458 1.30532,0 1.48415,4.11266 q 0.2861,0.78677 0.51855,1.66295 0.21457,-0.84041 0.50067,-1.62719 l 1.51991,-4.14842 1.19804,0 -2.70006,7.24187 q -0.44703,1.16228 -0.67948,1.6093 -0.32187,0.60797 -0.75102,0.87619 -0.41127,0.2861 -0.98347,0.2861 -0.33974,0 -0.76888,-0.16094 z" />
</svg>
